<?xml version="1.0" standalone="no"?>
<!DOCTYPE svg PUBLIC "-//W3C//DTD SVG 20010904//EN"
 "http://www.w3.org/TR/2001/REC-SVG-20010904/DTD/svg10.dtd">
<svg version="1.0" xmlns="http://www.w3.org/2000/svg"
 width="1080.000000pt" height="1080.000000pt" viewBox="0 0 1080.000000 1080.000000"
 preserveAspectRatio="xMidYMid meet">

<g transform="translate(0.000000,1080.000000) scale(0.100000,-0.100000)"
fill="#000000" stroke="none">
<path d="M5486 9105 c-3 -22 -10 -168 -16 -325 -6 -157 -13 -322 -16 -367 l-6
-83 85 0 85 0 6 73 c3 39 10 194 16 342 5 149 12 298 15 332 l5 62 -85 3 -85
3 -4 -40z"/>
<path d="M5801 8724 c-31 -229 -50 -399 -45 -404 5 -5 43 -12 84 -16 l76 -6
53 396 c30 218 52 399 50 401 -5 4 -126 25 -149 25 -13 0 -25 -68 -69 -396z"/>
<path d="M4215 8923 c-148 -47 -271 -86 -273 -88 -5 -4 219 -709 228 -718 6
-7 135 25 161 39 4 2 -11 59 -32 126 -22 68 -39 128 -39 134 0 6 74 34 165 63
91 28 165 53 165 55 0 2 -9 33 -20 69 l-20 65 -167 -54 c-92 -29 -169 -51
-171 -49 -10 10 -59 181 -53 186 3 4 87 33 186 64 99 31 181 58 183 60 4 4
-29 117 -37 127 -3 3 -127 -32 -276 -79z"/>
<path d="M5190 8923 c-19 -2 -44 -5 -56 -8 l-20 -4 18 -163 c20 -185 15 -222
-32 -262 -65 -54 -155 -42 -191 26 -7 13 -48 322 -49 369 0 5 -162 -9 -167
-15 -6 -6 38 -374 50 -411 16 -54 91 -130 142 -144 91 -25 179 -9 250 44 l45
35 0 -31 0 -32 46 7 c26 3 62 6 80 6 33 0 34 1 33 43 0 23 -13 155 -27 292
l-28 250 -29 1 c-17 1 -46 0 -65 -3z"/>
<path d="M6589 8865 c-90 -28 -157 -129 -147 -220 8 -67 48 -118 146 -188 110
-78 172 -138 172 -166 0 -11 -9 -30 -20 -41 -52 -52 -212 2 -314 106 l-53 53
-46 -47 c-26 -26 -47 -53 -47 -59 0 -22 124 -125 191 -158 175 -89 320 -85
407 9 60 65 75 134 46 204 -21 50 -63 93 -164 164 -115 81 -140 106 -140 138
0 38 38 70 83 70 57 0 137 -35 207 -92 l64 -51 43 49 c24 26 43 52 43 55 0 19
-111 103 -174 133 -115 55 -208 68 -297 41z"/>
<path d="M7230 8533 c-18 -32 -34 -59 -35 -61 -2 -2 -21 6 -43 17 l-41 21 -30
-54 c-17 -29 -31 -55 -31 -57 0 -3 16 -13 35 -23 19 -11 35 -23 35 -27 0 -4
-23 -47 -51 -96 -102 -175 -117 -228 -83 -299 23 -47 87 -100 151 -124 78 -29
90 -27 97 18 4 20 9 49 12 65 5 23 2 27 -16 27 -48 0 -90 36 -90 78 0 16 110
216 130 236 5 5 32 -5 64 -23 31 -17 59 -31 63 -31 12 0 65 99 59 109 -3 5
-31 23 -61 40 l-56 31 27 48 c15 26 32 53 38 60 7 10 6 16 -4 23 -8 5 -43 24
-77 44 l-61 35 -32 -57z"/>
<path d="M7564 8161 c-3 -14 -10 -41 -15 -60 -10 -41 -5 -51 24 -51 60 0 175
-83 192 -138 7 -24 -11 -92 -25 -92 -4 0 -38 25 -75 56 -95 77 -151 104 -219
104 -48 0 -60 -4 -91 -31 -46 -41 -65 -78 -65 -129 0 -112 123 -229 239 -230
l44 0 -23 -25 c-13 -14 -22 -26 -19 -28 2 -2 31 -25 63 -51 32 -26 62 -43 66
-39 70 79 238 298 251 328 29 63 25 140 -11 201 -52 91 -176 179 -288 203 -41
9 -42 8 -48 -18z m3 -338 c56 -39 103 -80 103 -91 0 -14 -43 -49 -68 -55 -35
-8 -92 12 -124 43 -36 36 -39 91 -6 114 31 22 49 20 95 -11z"/>
<path d="M3424 7916 c-63 -28 -82 -92 -45 -152 55 -90 191 -48 191 57 0 75
-78 126 -146 95z"/>
<path d="M2722 7769 c-137 -26 -262 -164 -279 -307 -13 -113 57 -236 168 -291
140 -70 306 -20 402 121 112 164 64 366 -106 447 -71 33 -123 42 -185 30z m99
-175 c40 -20 87 -80 95 -119 17 -93 -51 -175 -146 -175 -87 0 -170 80 -170
165 0 42 18 81 53 113 45 42 106 48 168 16z"/>
<path d="M8003 7657 c-97 -37 -173 -126 -194 -225 -39 -191 159 -421 335 -388
l33 6 -16 72 -17 72 -44 3 c-103 7 -172 123 -126 211 16 31 61 74 93 91 34 18
104 13 141 -9 51 -31 74 -76 69 -136 l-3 -51 65 -25 c40 -16 70 -22 76 -17 5
5 11 40 13 78 4 58 0 78 -21 125 -30 65 -106 145 -168 177 -53 27 -185 36
-236 16z"/>
<path d="M8445 7139 c-181 -104 -336 -193 -344 -198 -11 -7 -6 -22 24 -75 20
-36 41 -68 46 -71 5 -4 36 10 70 30 l60 35 55 -16 c30 -8 54 -17 54 -18 0 -2
-24 -64 -54 -139 l-53 -135 50 -87 c41 -71 52 -84 59 -70 6 9 41 94 80 188 38
95 73 176 77 180 4 4 76 -11 160 -33 84 -23 156 -40 161 -38 5 2 -11 40 -37
85 l-46 82 -81 25 c-45 13 -116 35 -158 47 -43 13 -78 26 -78 30 0 4 86 55
190 114 105 59 190 111 190 116 0 18 -74 139 -85 138 -5 -1 -158 -86 -340
-190z"/>
<path d="M2207 7243 c-13 -21 -31 -52 -41 -70 l-16 -32 32 -17 33 -17 -41 -14
c-125 -42 -205 -224 -160 -360 47 -142 213 -225 354 -179 111 37 202 158 202
268 0 32 3 58 6 58 16 0 66 -45 79 -70 22 -42 18 -89 -10 -147 -24 -48 -91
-119 -144 -153 l-23 -16 33 -54 c18 -30 34 -56 35 -58 7 -10 77 39 125 88 181
185 200 403 46 519 -42 32 -371 230 -464 280 -20 10 -25 8 -46 -26z m156 -237
c67 -28 101 -94 86 -165 -14 -67 -85 -131 -147 -131 -46 0 -106 35 -128 75
-38 71 4 188 80 221 40 17 69 17 109 0z"/>
<path d="M1868 6482 c-59 -33 -94 -80 -115 -151 -15 -53 -14 -135 2 -175 7
-16 5 -17 -22 -12 -31 7 -31 7 -56 -69 -19 -55 -23 -77 -14 -80 273 -92 541
-175 547 -168 7 8 50 131 50 144 0 4 -70 31 -156 59 -173 58 -219 87 -230 146
-8 43 18 118 49 139 36 25 97 17 252 -35 82 -27 155 -50 161 -50 10 0 69 149
61 156 -1 1 -86 29 -188 63 -220 72 -267 77 -341 33z"/>
<path d="M8881 6181 c-201 -43 -366 -82 -368 -87 -4 -13 63 -336 84 -399 37
-117 126 -216 228 -254 51 -20 74 -22 150 -19 116 6 201 44 269 119 103 115
115 232 51 532 -21 103 -42 187 -45 186 -3 0 -169 -36 -369 -78z m273 -148
c63 -222 38 -342 -84 -406 -49 -26 -63 -28 -131 -25 -135 6 -192 66 -231 246
-12 56 -19 104 -17 107 7 6 407 93 436 94 13 1 24 -6 27 -16z"/>
<path d="M1741 5768 c-64 -14 -131 -84 -156 -163 -25 -79 -25 -210 -1 -284 17
-49 20 -53 45 -48 14 3 43 13 63 21 l37 16 -14 41 c-8 23 -15 66 -15 96 0 90
35 146 99 159 l32 7 -8 -69 c-15 -127 -10 -225 12 -263 31 -53 67 -74 132 -78
44 -3 67 1 93 15 97 53 137 243 71 333 l-22 29 35 0 34 0 7 71 c4 39 3 74 -1
78 -8 7 -365 53 -389 50 -5 -1 -30 -6 -54 -11z m280 -207 c26 -26 29 -37 29
-89 0 -73 -21 -105 -69 -105 -62 0 -77 47 -57 176 7 44 9 47 37 47 20 0 40
-10 60 -29z"/>
<path d="M8834 5324 c-56 -20 -114 -72 -146 -130 -67 -124 -59 -304 16 -390
l31 -35 49 44 49 43 -23 32 c-28 38 -38 131 -21 185 13 39 72 97 98 97 15 0
15 -21 9 -219 l-7 -219 30 -7 c43 -9 137 11 186 40 94 55 139 140 140 265 0
73 -4 93 -28 142 -34 69 -101 131 -164 152 -57 20 -164 19 -219 0z m217 -170
c34 -17 68 -82 69 -127 0 -64 -61 -137 -114 -137 -14 0 -17 5 -12 23 3 12 6
75 6 140 0 75 4 117 10 117 6 0 25 -7 41 -16z"/>
<path d="M1329 5105 c-55 -30 -63 -125 -16 -173 58 -58 157 -9 157 78 0 75
-80 129 -141 95z"/>
<path d="M1718 5103 l-168 -3 0 -87 0 -86 313 7 c312 7 313 7 341 -15 23 -18
27 -28 24 -58 -3 -20 -7 -42 -9 -49 -4 -13 79 -52 109 -52 21 0 34 50 34 126
0 81 -22 135 -72 177 -58 49 -55 49 -572 40z"/>
<path d="M1705 4786 c-110 -35 -181 -96 -228 -196 -48 -100 -48 -179 -3 -420
21 -107 39 -196 40 -198 5 -4 737 136 744 143 3 3 -11 94 -32 203 -45 239 -75
312 -161 390 -73 67 -141 92 -243 91 -42 0 -95 -6 -117 -13z m175 -167 c105
-24 156 -92 188 -254 11 -55 18 -102 16 -104 -5 -5 -457 -92 -460 -88 -1 1 -9
37 -18 81 -32 156 -15 251 55 310 42 35 78 49 169 65 3 0 25 -4 50 -10z"/>
<path d="M8910 4586 l-305 -62 -19 -84 -19 -84 31 -24 c17 -13 136 -95 265
-182 l234 -159 16 77 c8 42 13 80 11 83 -2 3 -78 56 -169 118 -91 62 -167 117
-170 121 -3 4 82 24 188 44 105 21 199 39 208 42 11 3 20 27 29 77 7 39 15 78
17 85 6 15 40 21 -317 -52z"/>
<path d="M8604 4050 c-127 -39 -235 -199 -236 -348 0 -51 16 -122 27 -122 2 0
28 9 58 21 l54 21 -1 66 c0 77 23 132 74 175 28 24 95 46 106 34 3 -2 -31 -95
-76 -206 -44 -111 -78 -206 -75 -211 10 -17 100 -40 155 -40 118 0 215 64 268
178 23 48 27 71 27 142 0 73 -4 92 -27 136 -31 60 -84 109 -147 137 -52 23
-160 31 -207 17z m231 -234 c42 -63 18 -166 -47 -206 -32 -20 -113 -28 -106
-11 85 221 103 259 120 250 10 -5 25 -20 33 -33z"/>
<path d="M2225 3679 c-168 -95 -215 -130 -246 -191 -53 -104 6 -260 124 -328
29 -16 47 -30 41 -30 -5 0 -18 -6 -29 -13 -17 -13 -16 -17 20 -85 l39 -71 65
37 c36 20 152 84 258 142 l192 106 -35 64 c-19 35 -38 68 -43 73 -6 6 -64 -20
-151 -68 -155 -85 -205 -99 -257 -71 -40 20 -73 74 -73 119 0 55 36 88 188
171 75 42 143 80 150 84 10 7 4 25 -26 77 -21 38 -43 70 -48 71 -5 1 -81 -38
-169 -87z"/>
<path d="M8213 3448 c-37 -65 -40 -73 -25 -84 43 -29 684 -396 686 -393 7 9
84 144 83 145 -7 5 -699 404 -701 404 -1 0 -20 -32 -43 -72z"/>
<path d="M8140 3191 c-100 -21 -200 -104 -248 -209 -20 -44 -26 -73 -26 -127
-1 -119 56 -209 166 -265 161 -80 346 -4 430 176 27 58 30 72 26 142 -2 49
-11 91 -23 117 -55 113 -207 191 -325 166z m99 -175 c42 -22 89 -81 97 -121
17 -93 -51 -175 -146 -175 -80 0 -159 68 -167 144 -7 57 9 97 54 136 28 25 42
30 84 30 27 0 63 -7 78 -14z"/>
<path d="M2585 3078 c-69 -25 -137 -85 -173 -153 -22 -42 -27 -63 -27 -130 0
-101 30 -169 110 -244 72 -68 131 -94 215 -94 81 -1 147 27 208 86 61 59 84
109 90 192 5 94 -21 165 -91 242 -70 76 -148 113 -237 112 -36 0 -78 -5 -95
-11z m220 -191 c57 -57 66 -99 34 -164 -62 -125 -214 -143 -281 -34 -64 103
26 241 156 241 44 0 53 -4 91 -43z"/>
<path d="M7508 2879 l-57 -51 85 -101 85 -102 -44 -6 c-95 -14 -190 -94 -221
-186 -61 -177 67 -376 261 -408 117 -19 272 82 304 200 l11 37 21 -20 22 -21
60 54 60 53 -21 24 c-11 12 -125 148 -253 301 -128 152 -238 277 -244 277 -7
-1 -38 -23 -69 -51z m210 -390 c57 -28 102 -96 102 -153 0 -80 -67 -146 -148
-146 -54 0 -93 20 -127 64 -57 74 -55 146 6 207 53 53 99 61 167 28z"/>
<path d="M3048 2551 c-128 -165 -145 -194 -156 -253 -24 -125 65 -241 214
-278 l63 -16 -79 -102 c-44 -56 -80 -106 -80 -111 0 -13 119 -103 129 -96 20
12 492 626 487 633 -3 5 -31 29 -64 55 l-59 46 -20 -22 c-11 -12 -59 -73 -107
-135 -48 -62 -100 -119 -116 -127 -65 -34 -148 -4 -182 65 -27 54 -11 88 107
240 58 74 104 138 102 142 -3 8 -119 98 -126 98 -3 0 -54 -63 -113 -139z"/>
<path d="M3657 2283 c-2 -4 -8 -33 -11 -64 l-7 -56 32 -7 c40 -8 79 -42 79
-69 0 -11 -28 -73 -62 -138 l-62 -117 -66 33 -66 33 -27 -52 c-15 -28 -27 -54
-27 -58 0 -3 26 -21 58 -38 31 -18 59 -34 60 -36 2 -1 -11 -30 -29 -63 -17
-34 -30 -63 -28 -64 11 -9 138 -77 143 -77 3 0 19 27 36 60 17 33 34 60 38 60
4 -1 18 -7 32 -15 14 -8 31 -14 37 -15 15 0 66 97 59 109 -3 5 -19 14 -36 21
-16 7 -30 16 -30 21 0 5 26 58 59 119 68 126 81 160 81 207 0 73 -57 145 -144
184 -51 22 -112 34 -119 22z"/>
<path d="M7040 2256 c-73 -15 -138 -48 -193 -97 -40 -35 -87 -108 -87 -135 0
-9 92 -44 116 -44 5 0 18 16 28 35 22 41 94 92 142 101 44 8 93 -2 122 -24
l24 -18 -24 -16 c-12 -8 -101 -56 -195 -107 -95 -51 -173 -96 -173 -100 0 -19
62 -101 101 -134 145 -125 390 -57 476 130 22 48 25 65 21 132 -12 193 -171
317 -358 277z m210 -324 c0 -109 -132 -180 -226 -121 -19 11 -34 24 -34 29 0
11 242 140 252 134 5 -3 8 -22 8 -42z"/>
<path d="M4365 2141 c-35 -20 -122 -109 -293 -298 -133 -147 -243 -272 -245
-278 -2 -10 104 -53 133 -54 8 -1 78 70 155 156 l140 157 7 -94 c5 -52 11
-149 15 -214 l8 -120 79 -28 c43 -16 80 -27 82 -25 2 2 -7 145 -20 318 l-24
314 29 28 c44 41 92 35 149 -19 l26 -24 48 49 47 48 -31 32 c-51 50 -106 74
-185 78 -63 4 -75 1 -120 -26z"/>
<path d="M6543 2033 c-40 -13 -73 -30 -73 -36 0 -7 23 -79 51 -161 54 -157 57
-191 24 -242 -9 -14 -37 -35 -63 -47 -26 -12 -49 -23 -51 -24 -9 -6 44 -143
55 -143 22 0 109 65 129 97 25 40 32 41 40 4 l6 -30 77 27 c42 15 76 32 75 37
-3 24 -188 545 -193 544 -3 0 -38 -12 -77 -26z"/>
<path d="M5831 1854 c-13 -9 -30 -32 -38 -51 -41 -100 82 -188 165 -118 36 30
47 66 32 111 -22 66 -104 96 -159 58z"/>
<path d="M5080 1730 l-13 -102 -46 6 c-201 27 -297 16 -378 -43 -89 -65 -127
-228 -75 -327 33 -64 104 -120 181 -144 50 -16 409 -73 417 -66 1 0 23 156 48
346 25 190 48 359 51 377 7 37 3 39 -101 49 l-71 6 -13 -102z m-54 -245 c20
-4 20 -6 7 -102 -23 -178 -18 -166 -66 -158 -157 24 -170 28 -203 57 -78 69
-40 200 63 217 35 6 147 -2 199 -14z"/>
</g>
</svg>
